<mxfile host="app.diagrams.net" modified="2023-11-07T19:22:31.842Z" agent="Mozilla/5.0 (X11; Ubuntu; Linux x86_64; rv:109.0) Gecko/20100101 Firefox/119.0" etag="buTl0p8V1gnNQdrlA6f9" version="22.0.8" type="device">
  <diagram name="Page-1" id="S8iVRxwF7V396shOlesC">
    <mxGraphModel dx="2791" dy="1600" grid="1" gridSize="10" guides="1" tooltips="1" connect="1" arrows="1" fold="1" page="1" pageScale="1" pageWidth="850" pageHeight="1100" math="0" shadow="0">
      <root>
        <mxCell id="0" />
        <mxCell id="1" parent="0" />
        <mxCell id="euYt3WDs6pYeLBt2z_M9-1" value="Interface" style="swimlane;whiteSpace=wrap;html=1;startSize=30;" vertex="1" parent="1">
          <mxGeometry x="950" y="550" width="170" height="160" as="geometry" />
        </mxCell>
        <mxCell id="euYt3WDs6pYeLBt2z_M9-2" value="&amp;nbsp;+ background: file" style="rounded=0;whiteSpace=wrap;html=1;align=left;" vertex="1" parent="euYt3WDs6pYeLBt2z_M9-1">
          <mxGeometry y="30" width="170" height="40" as="geometry" />
        </mxCell>
        <mxCell id="euYt3WDs6pYeLBt2z_M9-3" value="&amp;nbsp;- exibir_interface(): void&lt;div&gt;&amp;nbsp;+ iniciar(): void&lt;/div&gt;&lt;div&gt;&amp;nbsp;+ sair(): void&lt;/div&gt;&lt;div&gt;&amp;nbsp;+ alterar_nivel(): void&lt;/div&gt;&lt;div&gt;&amp;nbsp;+ listar_scores(): string&lt;br&gt;&lt;/div&gt;" style="rounded=0;whiteSpace=wrap;html=1;align=left;" vertex="1" parent="euYt3WDs6pYeLBt2z_M9-1">
          <mxGeometry y="70" width="170" height="90" as="geometry" />
        </mxCell>
        <mxCell id="euYt3WDs6pYeLBt2z_M9-4" style="edgeStyle=orthogonalEdgeStyle;rounded=0;orthogonalLoop=1;jettySize=auto;html=1;endArrow=block;endFill=0;" edge="1" parent="1" source="euYt3WDs6pYeLBt2z_M9-5" target="euYt3WDs6pYeLBt2z_M9-1">
          <mxGeometry relative="1" as="geometry">
            <Array as="points">
              <mxPoint x="930" y="480" />
              <mxPoint x="930" y="630" />
            </Array>
          </mxGeometry>
        </mxCell>
        <mxCell id="euYt3WDs6pYeLBt2z_M9-5" value="Tabuleiro" style="swimlane;whiteSpace=wrap;html=1;startSize=30;" vertex="1" parent="1">
          <mxGeometry x="710" y="310" width="200" height="280" as="geometry" />
        </mxCell>
        <mxCell id="euYt3WDs6pYeLBt2z_M9-6" value="&lt;div&gt;&amp;nbsp;- player: Jogador&lt;br&gt;&lt;/div&gt;&lt;div&gt;&amp;nbsp;- tempo: Integer&lt;/div&gt;&lt;div align=&quot;left&quot;&gt;&amp;nbsp;+ nível: Integer&lt;br&gt;&lt;/div&gt;&lt;div&gt;&amp;nbsp;+ velocidade: float&lt;/div&gt;" style="rounded=0;whiteSpace=wrap;html=1;align=left;" vertex="1" parent="euYt3WDs6pYeLBt2z_M9-5">
          <mxGeometry y="30" width="200" height="70" as="geometry" />
        </mxCell>
        <mxCell id="euYt3WDs6pYeLBt2z_M9-7" value="&lt;div&gt;&amp;nbsp;+ som(): void&lt;/div&gt;&lt;div&gt;&amp;nbsp;+ parar_jogo(): boolean&lt;/div&gt;&lt;div&gt;&amp;nbsp;+ retomar_partida(): boolean&lt;br&gt;&lt;/div&gt;&lt;div&gt;&amp;nbsp;+ reiniciar_jogo(): boolean&lt;br&gt;&lt;/div&gt;&lt;div&gt;&lt;span style=&quot;background-color: initial;&quot;&gt;&amp;nbsp;- verifica_colisão(): boolean&lt;/span&gt;&lt;br&gt;&lt;/div&gt;&lt;div&gt;&amp;nbsp;- subir_nivel(): integer&lt;/div&gt;&lt;div&gt;&amp;nbsp;- limpar_linhas(): void&lt;/div&gt;&lt;div&gt;&amp;nbsp;- cair_peças(): void&lt;br&gt;&lt;/div&gt;&lt;div&gt;&amp;nbsp;- contar_linhas(): integer&lt;/div&gt;&lt;div&gt;&amp;nbsp;+ painel_pecas(): void&lt;/div&gt;&lt;div&gt;&amp;nbsp;+ peca_aleatoria(): tetrimino&lt;/div&gt;&lt;div&gt;&amp;nbsp;+ menu_game_over():void&lt;br&gt;&lt;/div&gt;" style="rounded=0;whiteSpace=wrap;html=1;align=left;" vertex="1" parent="euYt3WDs6pYeLBt2z_M9-5">
          <mxGeometry y="100" width="200" height="180" as="geometry" />
        </mxCell>
        <mxCell id="euYt3WDs6pYeLBt2z_M9-8" style="edgeStyle=orthogonalEdgeStyle;rounded=0;orthogonalLoop=1;jettySize=auto;html=1;endArrow=diamond;endFill=1;" edge="1" parent="1">
          <mxGeometry relative="1" as="geometry">
            <Array as="points">
              <mxPoint x="1370" y="544" />
              <mxPoint x="1370" y="270" />
              <mxPoint x="820" y="270" />
            </Array>
            <mxPoint x="1370" y="544" as="sourcePoint" />
            <mxPoint x="820" y="310" as="targetPoint" />
          </mxGeometry>
        </mxCell>
        <mxCell id="euYt3WDs6pYeLBt2z_M9-9" value="Jogador" style="swimlane;whiteSpace=wrap;html=1;startSize=30;" vertex="1" parent="1">
          <mxGeometry x="1240" y="545" width="160" height="160" as="geometry" />
        </mxCell>
        <mxCell id="euYt3WDs6pYeLBt2z_M9-10" value="&lt;div&gt;&amp;nbsp;+ nome: string&lt;br&gt;&lt;/div&gt;&lt;div&gt;&amp;nbsp;+ record: integer&lt;/div&gt;&lt;div&gt;&amp;nbsp;+ score: integer&lt;/div&gt;" style="rounded=0;whiteSpace=wrap;html=1;align=left;" vertex="1" parent="euYt3WDs6pYeLBt2z_M9-9">
          <mxGeometry y="30" width="160" height="50" as="geometry" />
        </mxCell>
        <mxCell id="euYt3WDs6pYeLBt2z_M9-11" value="&amp;nbsp;+ mover_direita(): void&lt;br&gt;&amp;nbsp;+ mover_esquerda(): void&lt;br&gt;&amp;nbsp;+ mover_baixo(): void&lt;br&gt;&amp;nbsp;+ rotacionar(): void&lt;br&gt;&amp;nbsp;+ acelerar(): void" style="rounded=0;whiteSpace=wrap;html=1;align=left;" vertex="1" parent="euYt3WDs6pYeLBt2z_M9-9">
          <mxGeometry y="80" width="160" height="80" as="geometry" />
        </mxCell>
        <mxCell id="euYt3WDs6pYeLBt2z_M9-12" style="edgeStyle=orthogonalEdgeStyle;rounded=0;orthogonalLoop=1;jettySize=auto;html=1;endArrow=diamond;endFill=0;" edge="1" parent="1" source="euYt3WDs6pYeLBt2z_M9-13">
          <mxGeometry relative="1" as="geometry">
            <mxPoint x="709.9999999999998" y="370" as="targetPoint" />
            <Array as="points">
              <mxPoint x="710" y="400" />
            </Array>
          </mxGeometry>
        </mxCell>
        <mxCell id="euYt3WDs6pYeLBt2z_M9-13" value="Estatísticas" style="swimlane;whiteSpace=wrap;html=1;startSize=30;" vertex="1" parent="1">
          <mxGeometry x="310" y="340" width="240" height="120" as="geometry" />
        </mxCell>
        <mxCell id="euYt3WDs6pYeLBt2z_M9-14" value="&amp;nbsp;+ score: Integer&lt;br&gt;&amp;nbsp;+ level: Integer&lt;br&gt;&amp;nbsp;+ linha: Integer" style="rounded=0;whiteSpace=wrap;html=1;align=left;" vertex="1" parent="euYt3WDs6pYeLBt2z_M9-13">
          <mxGeometry y="30" width="240" height="50" as="geometry" />
        </mxCell>
        <mxCell id="euYt3WDs6pYeLBt2z_M9-15" value="&lt;div&gt;&amp;nbsp;+ subir_nivel(score, level, linha): integer&lt;br&gt;&lt;/div&gt;&lt;div&gt;&amp;nbsp;+ exibe_estatistica(score, level, linha): void&lt;br&gt;&lt;/div&gt;" style="rounded=0;whiteSpace=wrap;html=1;align=left;" vertex="1" parent="euYt3WDs6pYeLBt2z_M9-13">
          <mxGeometry y="80" width="240" height="40" as="geometry" />
        </mxCell>
        <mxCell id="euYt3WDs6pYeLBt2z_M9-16" style="edgeStyle=orthogonalEdgeStyle;rounded=0;orthogonalLoop=1;jettySize=auto;html=1;" edge="1" parent="1" source="euYt3WDs6pYeLBt2z_M9-9" target="euYt3WDs6pYeLBt2z_M9-24">
          <mxGeometry relative="1" as="geometry">
            <mxPoint x="1400" y="660" as="sourcePoint" />
            <Array as="points">
              <mxPoint x="1290" y="390" />
            </Array>
          </mxGeometry>
        </mxCell>
        <mxCell id="euYt3WDs6pYeLBt2z_M9-17" style="edgeStyle=orthogonalEdgeStyle;rounded=0;orthogonalLoop=1;jettySize=auto;html=1;" edge="1" parent="1" source="euYt3WDs6pYeLBt2z_M9-10" target="euYt3WDs6pYeLBt2z_M9-2">
          <mxGeometry relative="1" as="geometry">
            <mxPoint x="1150" y="640" as="targetPoint" />
            <mxPoint x="1270" y="760" as="sourcePoint" />
            <Array as="points" />
          </mxGeometry>
        </mxCell>
        <mxCell id="euYt3WDs6pYeLBt2z_M9-18" style="edgeStyle=orthogonalEdgeStyle;rounded=0;orthogonalLoop=1;jettySize=auto;html=1;endArrow=diamond;endFill=1;" edge="1" parent="1" source="euYt3WDs6pYeLBt2z_M9-23" target="euYt3WDs6pYeLBt2z_M9-5">
          <mxGeometry relative="1" as="geometry">
            <mxPoint x="1220" y="318" as="sourcePoint" />
            <mxPoint x="912" y="350" as="targetPoint" />
            <Array as="points">
              <mxPoint x="950" y="420" />
              <mxPoint x="950" y="420" />
            </Array>
          </mxGeometry>
        </mxCell>
        <mxCell id="euYt3WDs6pYeLBt2z_M9-19" style="edgeStyle=orthogonalEdgeStyle;rounded=0;orthogonalLoop=1;jettySize=auto;html=1;endArrow=diamond;endFill=0;" edge="1" parent="1" source="euYt3WDs6pYeLBt2z_M9-20" target="euYt3WDs6pYeLBt2z_M9-7">
          <mxGeometry relative="1" as="geometry">
            <mxPoint x="780" y="499.9999999999998" as="targetPoint" />
            <Array as="points">
              <mxPoint x="810" y="620" />
            </Array>
          </mxGeometry>
        </mxCell>
        <mxCell id="euYt3WDs6pYeLBt2z_M9-20" value="Próximas Peças" style="swimlane;whiteSpace=wrap;html=1;startSize=30;" vertex="1" parent="1">
          <mxGeometry x="380" y="570" width="200" height="110" as="geometry" />
        </mxCell>
        <mxCell id="euYt3WDs6pYeLBt2z_M9-21" value="&amp;nbsp;+ peça: Tetrimino" style="rounded=0;whiteSpace=wrap;html=1;align=left;" vertex="1" parent="euYt3WDs6pYeLBt2z_M9-20">
          <mxGeometry y="30" width="200" height="30" as="geometry" />
        </mxCell>
        <mxCell id="euYt3WDs6pYeLBt2z_M9-22" value="&amp;nbsp;+ painel_pecas(): void&lt;br&gt;&amp;nbsp;+ peça_aleatoria(): tetrimino" style="rounded=0;whiteSpace=wrap;html=1;align=left;" vertex="1" parent="euYt3WDs6pYeLBt2z_M9-20">
          <mxGeometry y="60" width="200" height="50" as="geometry" />
        </mxCell>
        <mxCell id="euYt3WDs6pYeLBt2z_M9-23" value="Tetriminó" style="swimlane;whiteSpace=wrap;html=1;startSize=30;" vertex="1" parent="1">
          <mxGeometry x="1030" y="310" width="130" height="200" as="geometry" />
        </mxCell>
        <mxCell id="euYt3WDs6pYeLBt2z_M9-24" value="&lt;div&gt;&amp;nbsp;+ I: List&lt;/div&gt;&lt;div&gt;&lt;span style=&quot;background-color: initial;&quot;&gt;&amp;nbsp;+ J: &lt;/span&gt;List&lt;/div&gt;&lt;div&gt;&amp;nbsp;+ L: List&lt;/div&gt;&amp;nbsp;+ O: List&lt;br&gt;&amp;nbsp;+ S: List&lt;br&gt;&amp;nbsp;+ T: List&lt;br&gt;&amp;nbsp;+ Z: List&lt;br&gt;&amp;nbsp;- Cor: List&lt;br&gt;&amp;nbsp;- Dimensão: int" style="rounded=0;whiteSpace=wrap;html=1;align=left;" vertex="1" parent="euYt3WDs6pYeLBt2z_M9-23">
          <mxGeometry y="30" width="130" height="140" as="geometry" />
        </mxCell>
        <mxCell id="euYt3WDs6pYeLBt2z_M9-25" value="" style="rounded=0;whiteSpace=wrap;html=1;align=left;" vertex="1" parent="euYt3WDs6pYeLBt2z_M9-23">
          <mxGeometry y="170" width="130" height="30" as="geometry" />
        </mxCell>
      </root>
    </mxGraphModel>
  </diagram>
</mxfile>
